<?xml version="1.0" standalone="no"?>
<svg xmlns="http://www.w3.org/2000/svg" viewBox="0 0 102.99609375 44.37890625" width="102.99609375" height="44.37890625"><rect fill="none" stroke="#ffb39f" stroke-width="3" width="99.99609375" height="41.37890625" x="1.5" y="1.5"></rect><path fill="#9a1212" fill-rule="nonzero" d="M0 20.19L0 0.18L3.04 0.18Q3.61 0.18 4.29 0.23Q4.98 0.28 5.67 0.47Q6.35 0.67 6.99 1.07Q7.63 1.46 8.12 2.15Q8.61 2.84 8.91 3.87Q9.21 4.90 9.21 6.38L9.21 6.38L9.21 7.08Q9.21 8.68 8.94 9.83Q8.66 10.97 8.20 11.75Q7.75 12.53 7.14 13.00Q6.54 13.46 5.89 13.71Q5.24 13.95 4.58 14.02Q3.91 14.10 3.33 14.10L3.33 14.10L3.04 14.10L3.04 20.19L0 20.19ZM3.04 11.87L3.19 11.87Q4.01 11.87 4.57 11.63Q5.13 11.39 5.47 10.88Q5.80 10.37 5.95 9.57Q6.09 8.77 6.09 7.64L6.09 7.64L6.09 5.84Q6.09 4.95 5.96 4.29Q5.84 3.64 5.50 3.22Q5.17 2.80 4.61 2.60Q4.04 2.39 3.19 2.39L3.19 2.39L3.04 2.39L3.04 11.87ZM11.51 20.19L11.51 0.18L18.93 0.18L18.93 2.57L14.54 2.57L14.54 8.55L17.93 8.55L17.93 10.95L14.54 10.95L14.54 17.80L19.04 17.80L19.04 20.19L11.51 20.19ZM21.23 20.19L21.23 0.18L24.27 0.18L24.27 17.80L28.41 17.80L28.41 20.19L21.23 20.19ZM30.33 20.19L30.33 0.18L33.36 0.18L33.36 20.19L30.33 20.19ZM36.01 16.14L36.01 16.14Q36.01 15.49 36.09 14.95Q36.16 14.40 36.32 13.77L36.32 13.77L38.67 13.77L38.67 14.74Q38.67 15.55 38.77 16.17Q38.87 16.79 39.10 17.22Q39.33 17.65 39.71 17.87Q40.09 18.08 40.64 18.08L40.64 18.08Q41.51 18.08 41.96 17.61Q42.42 17.13 42.42 16.22L42.42 16.22Q42.42 15.75 42.36 15.36Q42.29 14.96 42.13 14.58Q41.98 14.19 41.71 13.76Q41.44 13.34 41.02 12.81L41.02 12.81L37.85 9.05Q37.01 7.97 36.55 6.87Q36.09 5.78 36.09 4.54L36.09 4.54Q36.09 3.54 36.40 2.71Q36.71 1.88 37.30 1.27Q37.89 0.67 38.75 0.33Q39.61 0 40.70 0L40.70 0Q42.02 0 42.91 0.38Q43.79 0.75 44.32 1.36Q44.85 1.97 45.06 2.72Q45.28 3.48 45.28 4.24L45.28 4.24Q45.28 4.89 45.18 5.43Q45.08 5.98 44.95 6.63L44.95 6.63L42.61 6.63L42.61 5.68Q42.61 4.09 42.15 3.24Q41.70 2.39 40.66 2.39L40.66 2.39Q39.81 2.39 39.39 2.87Q38.96 3.34 38.96 4.14L38.96 4.14Q38.96 4.56 39.03 4.90Q39.09 5.24 39.22 5.53Q39.34 5.81 39.52 6.08Q39.69 6.35 39.91 6.64L39.91 6.64L43.44 10.91Q44.40 12.16 44.92 13.32Q45.43 14.47 45.43 15.76L45.43 15.76Q45.43 16.83 45.10 17.68Q44.77 18.54 44.14 19.14Q43.52 19.73 42.64 20.06Q41.77 20.38 40.66 20.38L40.66 20.38Q39.30 20.38 38.41 20.02Q37.51 19.65 36.98 19.05Q36.45 18.46 36.23 17.70Q36.01 16.93 36.01 16.14ZM51.63 20.19L55.32 0.18L58.82 0.18L62.52 20.19L59.45 20.19L58.90 16.61L55.24 16.61L54.71 20.19L51.63 20.19ZM55.59 14.32L58.55 14.32L57.14 4.35L57.01 4.35L55.59 14.32ZM64.45 20.19L64.45 0.18L67.49 0.18Q68.06 0.18 68.75 0.23Q69.43 0.28 70.12 0.47Q70.80 0.67 71.44 1.07Q72.08 1.46 72.57 2.15Q73.07 2.84 73.37 3.87Q73.66 4.90 73.66 6.38L73.66 6.38L73.66 7.08Q73.66 8.68 73.39 9.83Q73.11 10.97 72.66 11.75Q72.20 12.53 71.60 13.00Q70.99 13.46 70.34 13.71Q69.69 13.95 69.03 14.02Q68.37 14.10 67.78 14.10L67.78 14.10L67.49 14.10L67.49 20.19L64.45 20.19ZM67.49 11.87L67.64 11.87Q68.46 11.87 69.02 11.63Q69.59 11.39 69.92 10.88Q70.25 10.37 70.40 9.57Q70.55 8.77 70.55 7.64L70.55 7.64L70.55 5.84Q70.55 4.95 70.42 4.29Q70.29 3.64 69.96 3.22Q69.62 2.80 69.06 2.60Q68.50 2.39 67.64 2.39L67.64 2.39L67.49 2.39L67.49 11.87ZM75.96 20.19L75.96 0.18L79.00 0.18L79.00 20.19L75.96 20.19Z" transform="translate(12 12)"></path></svg>